<svg width="145" height="145" viewBox="0 0 145 145" fill="none" xmlns="http://www.w3.org/2000/svg">
<g clip-path="url(#clip0_14045_13367)">
<rect width="145" height="145" rx="10" fill="white"/>
<path d="M-41.2656 154.848L59.2154 148.349C2.72063 107.685 -4.93152 83.212 -6.70051 55.8619C-3.96661 98.1303 -29.7037 122.474 -42.914 129.362L-41.2656 154.848Z" fill="#D40100"/>
<path d="M179.476 -41.2508C95.148 56.6735 -2.17334 35.7833 -40.293 13.0977L148.068 -95.6523L179.476 -41.2508Z" fill="#731312"/>
<path d="M164.996 145.551H79.4961C133.896 127.151 159.163 73.5508 164.996 49.0508V145.551Z" fill="#4B2C87"/>
<path d="M71.793 39.5C84.9125 39.5 95.5869 50.1739 95.5869 63.293C95.5869 66.3003 94.6705 69.8024 94.5234 70.3398L94.5029 70.4111C93.6382 73.3667 92.355 76.2167 90.9766 79.2715C87.8737 86.1497 84.3242 94.0148 84.3242 106.264C84.3243 118.107 88.427 126.774 89.6943 129.165C90.0673 129.869 90.0435 130.717 89.6328 131.399C89.2218 132.082 88.4841 132.5 87.6875 132.5H55.9004C55.1036 132.5 54.3647 132.082 53.9541 131.399C53.5436 130.717 53.5208 129.869 53.8936 129.165L53.8926 129.164C55.1603 126.771 59.2626 118.106 59.2627 106.264C59.2627 94.0148 55.7132 86.15 52.6104 79.2715C51.2345 76.2216 49.9526 73.3765 49.0879 70.4258L49.0645 70.3389C48.917 69.8012 48.0001 66.3 48 63.293C48 50.174 58.6737 39.5002 71.793 39.5ZM61.5107 122.258C60.9493 124.167 60.3441 125.848 59.7676 127.27L59.4883 127.957H84.0986L83.8193 127.27C83.2428 125.849 82.6376 124.168 82.0762 122.258L81.9707 121.899H61.6162L61.5107 122.258ZM64.041 57.6553C63.8614 57.6794 63.7023 57.7413 63.5547 57.8232L63.4102 57.9111C62.8604 58.2736 62.4117 59.1703 62.8691 61.1826C63.3282 63.2019 64.7256 66.5153 68.1338 71.9961H68.1348L68.5166 72.6104C69.9475 74.9051 71.1509 76.837 72.0303 79.125C72.9061 81.4037 73.4675 84.0551 73.5742 87.7715C73.827 96.5978 70.7689 104.451 64.1348 116.617L63.7314 117.356H80.8721L80.7607 116.765C80.1717 113.628 79.7822 110.107 79.7822 106.264C79.7822 96.3359 81.9823 88.9875 84.4102 82.9883L84.6719 82.3418L83.9756 82.3008C82.0232 82.1877 80.2043 81.3843 78.8115 79.9912C78.0253 79.2049 77.4291 78.281 77.0332 77.2754L77.0293 77.2666C77.0244 77.2549 77.02 77.2448 77.0166 77.2373C77.0134 77.2304 77.0101 77.2234 77.0088 77.2207C77.0074 77.2178 77.0068 77.2168 77.0068 77.2168C74.5744 71.1065 72.1839 66.4715 70.082 63.2578C69.0308 61.6505 68.046 60.3889 67.1572 59.4746C66.2792 58.5715 65.4542 57.9648 64.7178 57.7334H64.7188C64.5022 57.6649 64.2792 57.6233 64.041 57.6553ZM62.1162 72.1318C61.1981 73.2662 59.997 74.1328 58.5879 74.582C57.9092 74.7975 57.2235 74.9013 56.5439 74.9014C56.5368 74.9014 56.5259 74.9009 56.502 74.8994C56.4825 74.8982 56.4465 74.8954 56.4102 74.8945L55.6211 74.876L55.9414 75.5967C56.2062 76.1933 56.4763 76.7954 56.751 77.4043C59.8189 84.2056 63.5839 92.5596 63.7949 105.151L64.749 105.351C67.9602 98.3284 69.1109 93.4741 69.043 88.3936L69.0332 87.9014C68.9455 84.8463 68.5291 82.694 67.7842 80.7559C67.044 78.83 65.9855 77.1361 64.6621 75.0137L64.2764 74.3936H64.2754C63.8255 73.6701 63.3756 72.9329 62.9336 72.1904L62.5674 71.5742L62.1162 72.1318ZM84.4453 70.9326C83.5317 70.9326 82.6698 71.2888 82.0234 71.9355C81.3775 72.5819 81.0205 73.4436 81.0205 74.3574C81.0205 75.2712 81.3772 76.1325 82.0234 76.7783C82.6697 77.4248 83.5318 77.7812 84.4453 77.7812C85.3025 77.7811 86.1136 77.4677 86.7441 76.8955L86.8672 76.7783C87.4728 76.1731 87.825 75.3779 87.8662 74.5273L87.8701 74.3564C87.8699 73.4429 87.5136 72.5817 86.8672 71.9355C86.2208 71.2896 85.3589 70.9327 84.4453 70.9326ZM71.793 44.043C61.1781 44.0432 52.5425 52.6778 52.542 63.292C52.542 64.4988 52.7456 65.8734 52.9541 66.9688C53.1595 68.0488 53.731 69.005 54.4873 69.6279C55.2445 70.2516 56.2289 70.5682 57.2109 70.2529C58.0623 69.9794 58.7582 69.1931 59.1523 68.2607C59.5441 67.3341 59.6713 66.1902 59.334 65.0654L59.335 65.0635C59.3317 65.0499 59.3259 65.031 59.3242 65.0254C59.3233 65.0225 59.3219 65.0174 59.3213 65.0156C59.3209 65.0145 59.3206 65.0127 59.3203 65.0117C59.3197 65.0099 59.3196 65.0076 59.3193 65.0068C59.3189 65.0055 59.3175 65.0043 59.3174 65.0039C59.3168 65.0023 59.3166 65.0005 59.3164 65C59.3161 64.9991 59.3158 64.9981 59.3154 64.9971C59.315 64.9959 59.314 64.9947 59.3135 64.9932C59.3132 64.9926 59.3129 64.9912 59.3125 64.9902L59.3115 64.9854L59.3057 64.9697C58.1346 61.7457 58.0577 59.3532 58.5 57.6201C58.941 55.8927 59.9073 54.7784 60.9082 54.1182C62.4872 53.0767 64.2663 52.8287 66.0791 53.3984C68.2405 54.0775 70.4013 56.0196 72.4707 58.752C74.5294 61.4702 76.4484 64.9039 78.1484 68.458L78.4463 69.0801L78.9453 68.6035C80.4353 67.1776 82.3778 66.3896 84.4453 66.3896C86.358 66.3898 88.1628 67.0637 89.6025 68.292L90.2344 68.8311L90.415 68.0205C90.6726 66.864 91.0439 64.9223 91.0439 63.293C91.0439 52.6781 82.4082 44.043 71.793 44.043ZM59.3242 65.1221C59.3213 65.1652 59.2865 65.3003 59.2412 65.3857C59.1741 65.4532 59.0582 65.5052 58.9395 65.5371C58.9337 65.51 58.9272 65.4831 58.9209 65.4561C59.1367 65.3725 59.2841 65.1965 59.3232 65.1055C59.3234 65.1114 59.3242 65.1171 59.3242 65.1221Z" fill="black" stroke="white" stroke-miterlimit="4.13357"/>
</g>
<rect x="1.5" y="1.5" width="142" height="142" rx="8.5" stroke="black" stroke-width="3"/>
<defs>
<clipPath id="clip0_14045_13367">
<rect width="145" height="145" rx="10" fill="white"/>
</clipPath>
</defs>
</svg>
